<svg width="32" height="32" viewBox="0 0 32 32" fill="none" xmlns="http://www.w3.org/2000/svg">
<path d="M15.4364 26.8245L15.4385 26.8259C15.604 26.9389 15.7997 26.9996 16.0001 27C16.2003 26.9996 16.3959 26.9391 16.5614 26.8263L16.5631 26.8251C21.4018 23.5404 23.4559 21.3177 24.5636 19.9681C26.9388 17.0723 28.0308 14.1662 27.9998 11.0501L15.4364 26.8245ZM15.4364 26.8245C10.5977 23.5398 8.54364 21.3172 7.43592 19.9676L15.4364 26.8245ZM14.9583 7.49632L14.9583 7.49631C13.9433 6.31573 12.2876 5 9.94222 5C6.7242 5 4.03381 7.69323 3.99967 11.0493L14.9583 7.49632ZM14.9583 7.49632L14.9616 7.5001M14.9583 7.49632L14.9616 7.5001M14.9616 7.5001C15.0907 7.64872 15.2501 7.76788 15.4292 7.84955C15.6083 7.93121 15.8029 7.97348 15.9997 7.97348C16.1966 7.97348 16.3911 7.93122 16.5702 7.84955C16.7493 7.76788 16.9088 7.64871 17.0378 7.5001L17.0414 7.49595M14.9616 7.5001L17.0414 7.49595M17.0414 7.49595C18.056 6.31477 19.7116 5 22.0572 5M17.0414 7.49595L22.0572 5M22.0572 5C25.2752 5 27.9656 7.69317 27.9998 11.05L22.0572 5ZM7.43584 19.9675C5.0595 17.0713 3.96867 14.1651 3.99967 11.0495L7.43584 19.9675Z" stroke="#3F3F3F" stroke-width="2"/>
</svg>
