<svg width="32" height="32" viewBox="0 0 32 32" fill="none" xmlns="http://www.w3.org/2000/svg">
<g clip-path="url(#clip0_436_497)">
<path d="M16 2.66667C23.352 2.66667 29.3333 8.648 29.3333 16C29.3333 23.352 23.352 29.3333 16 29.3333C8.648 29.3333 2.66667 23.352 2.66667 16C2.66667 8.648 8.648 2.66667 16 2.66667ZM16 0C7.164 0 0 7.164 0 16C0 24.836 7.164 32 16 32C24.836 32 32 24.836 32 16C32 7.164 24.836 0 16 0ZM16 8C11.5827 8 8 11.5813 8 16C8 19.3893 10.108 22.2827 13.0827 23.4493C13.0133 22.816 12.9493 21.8453 13.112 21.1547C13.256 20.5307 14.0493 17.1787 14.0493 17.1787C14.0493 17.1787 13.808 16.7 13.808 15.9907C13.808 14.8787 14.4547 14.048 15.2573 14.048C15.94 14.048 16.2693 14.5613 16.2693 15.1747C16.2693 15.8627 15.832 16.888 15.6067 17.8387C15.4173 18.636 16.0067 19.284 16.792 19.284C18.2133 19.284 19.308 17.7853 19.308 15.6213C19.308 13.7053 17.932 12.3667 15.9653 12.3667C13.6893 12.3667 12.3533 14.0733 12.3533 15.8387C12.3533 16.5267 12.6187 17.2627 12.948 17.6627C13.0133 17.7427 13.0227 17.812 13.0027 17.8933L12.7827 18.8C12.7467 18.9467 12.6653 18.9787 12.5147 18.908C11.5147 18.4427 10.8893 16.9827 10.8893 15.808C10.8893 13.284 12.7227 10.968 16.1747 10.968C18.9507 10.968 21.108 12.944 21.108 15.588C21.108 18.3453 19.3693 20.564 16.956 20.564C16.1453 20.564 15.384 20.144 15.1227 19.6453L14.624 21.5467C14.444 22.2413 13.956 23.1133 13.6293 23.644C14.3787 23.8747 15.176 24 16 24C20.4173 24 24 20.4173 24 16C24 11.5813 20.4173 8 16 8Z" fill="#3F3F3F"/>
</g>
<defs>
<clipPath id="clip0_436_497">
<rect width="32" height="32" fill="white"/>
</clipPath>
</defs>
</svg>
