<svg width="32" height="32" viewBox="0 0 32 32" fill="none" xmlns="http://www.w3.org/2000/svg">
<g clip-path="url(#clip0_436_495)">
<path d="M16 2.66667C23.352 2.66667 29.3333 8.648 29.3333 16C29.3333 23.352 23.352 29.3333 16 29.3333C8.648 29.3333 2.66667 23.352 2.66667 16C2.66667 8.648 8.648 2.66667 16 2.66667ZM16 0C7.164 0 0 7.164 0 16C0 24.836 7.164 32 16 32C24.836 32 32 24.836 32 16C32 7.164 24.836 0 16 0ZM8.03867 24L9.164 19.892C8.47067 18.6893 8.10533 17.3253 8.10533 15.928C8.10667 11.556 11.6627 8 16.0333 8C18.1547 8.00133 20.1453 8.82667 21.6413 10.3253C23.1387 11.824 23.9627 13.816 23.9613 15.9347C23.96 20.3067 20.4027 23.8627 16.0333 23.8627C14.7067 23.8627 13.3987 23.5293 12.2413 22.8973L8.03867 24ZM12.436 21.4627C13.5533 22.1253 14.62 22.524 16.0307 22.524C19.6627 22.524 22.6213 19.568 22.6227 15.9347C22.624 12.2933 19.6787 9.34133 16.036 9.34C12.4013 9.34 9.44533 12.296 9.444 15.9293C9.444 17.412 9.87867 18.524 10.608 19.6853L9.94267 22.1173L12.436 21.4627ZM20.028 17.82C19.9787 17.7373 19.8467 17.688 19.648 17.588C19.4493 17.4893 18.476 17.0093 18.2947 16.944C18.1133 16.8773 17.9813 16.8453 17.8493 17.0427C17.7173 17.2413 17.3373 17.6867 17.2227 17.82C17.1067 17.952 16.992 17.9693 16.7933 17.8693C16.5947 17.7707 15.9573 17.5613 15.2 16.8867C14.6107 16.3613 14.2133 15.712 14.0973 15.5147C13.9813 15.316 14.0853 15.2093 14.184 15.1107L14.4813 14.764L14.68 14.4333C14.7467 14.3013 14.7133 14.1853 14.664 14.0867L14.0533 12.616C13.892 12.2293 13.7293 12.2827 13.608 12.276L13.2267 12.2667C13.0947 12.2667 12.88 12.316 12.6987 12.5147C12.5173 12.7133 12.0053 13.192 12.0053 14.168C12.0053 15.1427 12.7147 16.0853 12.8147 16.2173C12.9133 16.3493 14.212 18.3507 16.1987 19.208C16.6707 19.412 17.04 19.5347 17.328 19.6253C17.8027 19.776 18.2347 19.7547 18.576 19.704C18.956 19.6467 19.748 19.2253 19.9133 18.7627C20.0773 18.2987 20.0773 17.9027 20.028 17.82Z" fill="#3F3F3F"/>
</g>
<defs>
<clipPath id="clip0_436_495">
<rect width="32" height="32" fill="white"/>
</clipPath>
</defs>
</svg>
